<svg xmlns="http://www.w3.org/2000/svg" xmlns:xlink="http://www.w3.org/1999/xlink" width="600" zoomAndPan="magnify" viewBox="0 0 450 449.999984" height="600" preserveAspectRatio="xMidYMid meet" version="1.0"><path fill="#79a6a3" d="M 70.140625 440.378906 C 39.054688 424.707031 3.726562 439.335938 14.84375 389.96875 C 21.789062 359.128906 136.421875 371.738281 163.695312 370.933594 C 185.578125 370.289062 226.597656 374.121094 254.929688 374.121094 C 278.296875 374.121094 401.953125 372.554688 412.203125 379.160156 C 434.304688 393.402344 423.644531 380.710938 423.644531 420.878906 C 423.644531 449.871094 317.332031 436.820312 288.585938 436.820312 C 218.898438 436.820312 143.59375 427.660156 76.113281 440.101562 C 76.089844 440.105469 70.914062 440.765625 70.140625 440.378906 " fill-opacity="1" fill-rule="evenodd"/><path fill="#79a6a3" d="M 70.140625 351.105469 C 69.105469 350.554688 42.742188 344.820312 27.863281 337.621094 C 21.113281 334.359375 3.960938 300.816406 32.558594 288.921875 C 44.828125 283.816406 151.609375 281.519531 174.667969 279.445312 C 207.160156 276.523438 255.742188 282.867188 289.761719 275.558594 C 307.265625 271.800781 419.082031 285.992188 418.949219 289.101562 C 416.265625 350.6875 446.308594 350.742188 332.910156 350.742188 C 314.152344 350.742188 70.828125 351.472656 70.140625 351.105469 " fill-opacity="1" fill-rule="evenodd"/><path fill="#79a6a3" d="M 17.191406 211.519531 C 19.300781 196 136.0625 193.457031 155.875 193.457031 C 185.191406 193.457031 421.265625 188.929688 426.09375 210.367188 C 427.308594 215.765625 428.914062 263.664062 413.074219 262.535156 C 412.496094 262.496094 382.015625 265.722656 374.316406 265.722656 C 320.222656 265.722656 287.425781 263.828125 234.863281 260.316406 C 204.375 258.28125 93.777344 267.269531 39.871094 261.835938 C 6.144531 258.433594 13.011719 242.296875 17.191406 211.519531 " fill-opacity="1" fill-rule="evenodd"/><path fill="#79a6a3" d="M 14.277344 163.878906 C 10.546875 161.394531 11.742188 118.636719 14.277344 114.019531 C 28.097656 88.824219 258.894531 105.652344 295.332031 103.035156 C 309.226562 102.035156 415.425781 96.195312 415.425781 109.5 C 415.425781 122.917969 425.308594 173.265625 417.773438 173.265625 C 331.113281 173.265625 251.027344 171.023438 160.46875 174.238281 C 135.371094 175.125 92.371094 174.835938 67.511719 172.5625 C 49.355469 170.910156 29.390625 173.964844 14.277344 163.878906 " fill-opacity="1" fill-rule="evenodd"/><path fill="#79a6a3" d="M 35.449219 83.296875 C 13.527344 82.058594 17.554688 56.671875 16.410156 32.449219 C 14.886719 0.167969 418.949219 14.976562 418.949219 24.480469 C 418.949219 42.132812 430.625 77.179688 413.074219 76.554688 C 412.878906 76.546875 378.445312 80.804688 364.722656 80.804688 C 265.667969 80.804688 129.40625 88.617188 35.449219 83.296875 " fill-opacity="1" fill-rule="evenodd"/></svg>