<svg xmlns="http://www.w3.org/2000/svg" xmlns:xlink="http://www.w3.org/1999/xlink" width="500" zoomAndPan="magnify" viewBox="0 0 375 374.999991" height="500" preserveAspectRatio="xMidYMid meet" version="1.0"><defs><clipPath id="b5534ecb53"><path d="M 117 55.785156 L 286 55.785156 L 286 93 L 117 93 Z M 117 55.785156 " clip-rule="nonzero"/></clipPath><clipPath id="87643b4dbe"><path d="M 123.28125 75.917969 C 123.28125 75.917969 69.957031 252.257812 83.1875 285.425781 C 100.410156 328.601562 284.746094 324.777344 310.558594 283.328125 C 324.441406 261.03125 270.824219 75.917969 270.824219 75.917969 C 261.34375 52.003906 160.195312 46.679688 123.28125 75.917969 Z M 123.28125 75.917969 " clip-rule="evenodd"/></clipPath><clipPath id="77183126b1"><path d="M 27.574219 88.765625 L 55 88.765625 L 55 127 L 27.574219 127 Z M 27.574219 88.765625 " clip-rule="nonzero"/></clipPath><clipPath id="5ea1ef3176"><path d="M 27.574219 110.015625 C 27.574219 110.015625 86.394531 212.882812 105.886719 225.554688 C 121.402344 235.640625 148.375 215.378906 135.234375 182.71875 C 126.019531 159.820312 48.488281 88.90625 48.488281 88.90625 Z M 27.574219 110.015625 " clip-rule="evenodd"/></clipPath></defs><path fill="#f8ab3e" d="M 283.226562 140.871094 C 287.285156 129.988281 292.203125 112.832031 299.292969 98.226562 C 303.527344 89.503906 308.355469 81.65625 314.984375 77.796875 C 324.558594 72.066406 332.605469 75.980469 338.667969 82.417969 C 346.546875 90.78125 351.789062 103.078125 353.179688 112.121094 C 354.867188 122.8125 352.027344 132.703125 347.546875 142.226562 C 339.769531 158.75 327.378906 174.273438 320.171875 190.238281 C 311.796875 208.882812 311.238281 225.898438 305.046875 241.308594 C 301.59375 249.902344 296.105469 257.921875 285.414062 265.355469 C 281.617188 267.945312 280.824219 272.871094 283.640625 276.355469 C 286.453125 279.84375 291.820312 280.570312 295.613281 277.988281 C 305.847656 271.15625 312.472656 263.816406 317.183594 256.09375 C 327.777344 238.714844 327.273438 218.933594 337.652344 197.050781 C 346.496094 178.316406 362.429688 160.277344 369.75 140.40625 C 373.363281 130.597656 375.007812 120.382812 373.457031 109.550781 C 371.289062 94.839844 361.449219 73.710938 346.816406 63.347656 C 334.890625 54.902344 320.191406 52.320312 303.910156 62.46875 C 296.648438 67.101562 290.445312 74.730469 285.664062 84.074219 C 277.050781 100.898438 272.371094 123.207031 268.300781 136.628906 C 267.027344 140.414062 269.335938 144.433594 273.453125 145.605469 C 277.574219 146.777344 281.949219 144.65625 283.226562 140.871094 Z M 283.226562 140.871094 " fill-opacity="1" fill-rule="evenodd"/><path fill="#ffc168" d="M 123.28125 75.917969 C 123.28125 75.917969 69.957031 252.257812 83.1875 285.425781 C 100.410156 328.597656 284.746094 324.777344 310.558594 283.328125 C 324.441406 261.03125 270.824219 75.917969 270.824219 75.917969 C 261.34375 52.003906 160.195312 46.679688 123.28125 75.917969 Z M 123.28125 75.917969 " fill-opacity="1" fill-rule="evenodd"/><g clip-path="url(#b5534ecb53)"><g clip-path="url(#87643b4dbe)"><path fill="#d0923a" d="M 117.410156 75.207031 C 133.820312 86.546875 170.945312 91.9375 200.183594 92.359375 C 223.359375 92.691406 252.027344 89.195312 270.957031 75.609375 C 297.019531 56.90625 284.4375 29.722656 255.9375 20.769531 C 219.949219 9.464844 178.058594 17.777344 142.902344 27.496094 Z M 117.410156 75.207031 " fill-opacity="1" fill-rule="evenodd"/></g></g><path fill="#a29b41" d="M 210.542969 197.613281 C 211.273438 198.054688 211.429688 199.125 211.726562 200.117188 C 212.324219 202.140625 212.628906 204.324219 212.988281 205.847656 C 215.492188 216.558594 217.3125 227.363281 217.703125 238.378906 C 217.789062 240.777344 219.769531 242.652344 222.125 242.566406 C 224.484375 242.476562 226.332031 240.460938 226.246094 238.066406 C 225.832031 226.480469 223.9375 215.105469 221.304688 203.835938 C 220.824219 201.78125 220.375 198.671875 219.394531 196.070312 C 218.417969 193.46875 216.902344 191.339844 214.898438 190.128906 C 212.867188 188.90625 210.242188 189.589844 209.042969 191.65625 C 207.84375 193.722656 208.511719 196.386719 210.542969 197.613281 Z M 210.542969 197.613281 " fill-opacity="1" fill-rule="evenodd"/><path fill="#a29b41" d="M 221.582031 239.425781 C 221.582031 235.378906 224.683594 230.523438 226.476562 227.125 C 231.398438 217.824219 237.480469 207.328125 245.511719 200.433594 C 250.324219 196.304688 256.023438 196.03125 255.136719 203.558594 C 254.5 208.945312 251.378906 214.277344 248.625 218.792969 C 246.0625 222.996094 242.851562 226.675781 239.089844 229.8125 C 233.554688 234.425781 227.34375 237.78125 221.050781 241.152344 Z M 221.582031 239.425781 " fill-opacity="1" fill-rule="evenodd"/><path fill="#a29b41" d="M 220.359375 239.582031 C 218.699219 238.160156 217.496094 236.203125 215.855469 234.71875 C 209.175781 228.675781 200.644531 223.976562 191.886719 222.046875 C 185.265625 220.59375 178.007812 221.496094 172.65625 226.03125 C 168.679688 229.40625 166.980469 235.136719 171.066406 239.171875 C 177.84375 245.867188 190.503906 243.773438 198.816406 242.386719 C 206.167969 241.160156 213.207031 238.777344 220.425781 237.027344 Z M 220.359375 239.582031 " fill-opacity="1" fill-rule="evenodd"/><path fill="#fff9e6" d="M 205.3125 159.5625 C 205.3125 159.5625 220.074219 146.730469 225.988281 148.53125 C 243.445312 153.851562 235.472656 161.519531 232.222656 166.488281 C 231.902344 166.972656 228.042969 171.316406 228.3125 171.6875 C 228.871094 172.449219 234.996094 172.011719 236.03125 172.125 C 244.542969 173.058594 258.878906 177.207031 252.203125 188.699219 C 248.050781 195.84375 238.5625 199.171875 230.792969 198.804688 C 228.179688 198.679688 224.25 196.699219 221.746094 197.730469 C 220.351562 198.304688 214.664062 208.796875 208.855469 211.714844 C 204.652344 213.820312 199.394531 214.847656 194.863281 213.261719 C 190.230469 211.648438 188.09375 207.484375 188.011719 202.65625 C 187.996094 201.820312 189.066406 196.992188 188.40625 196.480469 C 187.355469 195.679688 181.957031 198.546875 180.742188 198.804688 C 173.789062 200.246094 163.777344 198.203125 161.542969 190.09375 C 159.105469 181.238281 168.386719 176.144531 175.480469 175.171875 C 177.085938 174.949219 184.761719 175.230469 183.484375 173.542969 C 181.109375 170.402344 173.953125 163.816406 174.398438 158.945312 C 175.988281 141.550781 200.519531 153.023438 205.3125 159.5625 Z M 205.3125 159.5625 " fill-opacity="1" fill-rule="evenodd"/><path fill="#f8ab3e" d="M 204.066406 187.804688 C 200.96875 188.101562 198.972656 184.734375 198.414062 182.382812 C 197.339844 177.863281 199.804688 172.261719 205.09375 171.199219 C 211.5625 169.898438 218.847656 176.8125 216.453125 182.789062 C 215.515625 185.128906 212.859375 186.769531 210.410156 187.550781 Z M 204.066406 187.804688 " fill-opacity="1" fill-rule="evenodd"/><path fill="#f8ab3e" d="M 27.574219 110.015625 C 27.574219 110.015625 86.394531 212.882812 105.886719 225.554688 C 121.402344 235.640625 148.375 215.378906 135.234375 182.71875 C 126.019531 159.820312 48.488281 88.90625 48.488281 88.90625 Z M 27.574219 110.015625 " fill-opacity="1" fill-rule="evenodd"/><g clip-path="url(#77183126b1)"><g clip-path="url(#5ea1ef3176)"><path fill="#d0923a" d="M 32.890625 126.257812 C 34.25 124.554688 36.214844 123.28125 37.707031 121.695312 C 40.898438 118.300781 43.878906 114.625 46.515625 110.691406 C 50.253906 105.121094 53.949219 98.101562 54.164062 90.898438 C 54.289062 86.875 52.730469 83.128906 48.589844 83.320312 C 47.417969 83.375 46.285156 83.738281 45.203125 84.1875 C 43.792969 84.769531 42.488281 85.570312 41.234375 86.464844 C 29.660156 94.714844 21.394531 109.113281 16.207031 122.898438 Z M 32.890625 126.257812 " fill-opacity="1" fill-rule="evenodd"/></g></g><path fill="#f8ab3e" d="M 41.71875 63.949219 C 36.765625 64.570312 26.703125 70.03125 23.882812 71.914062 C 12.203125 79.710938 0.00390625 92.003906 2.152344 106.324219 C 2.703125 109.992188 4.246094 113.398438 7.261719 115.929688 C 13.882812 121.492188 23.664062 118.964844 30.476562 115.148438 C 42.046875 108.671875 50.722656 96.707031 54.5625 84.914062 C 56.324219 79.496094 55.746094 71.695312 53.605469 68.199219 C 51.519531 64.796875 45.933594 63.421875 41.71875 63.949219 Z M 41.71875 63.949219 " fill-opacity="1" fill-rule="evenodd"/><path fill="#d0923a" d="M 13.277344 108.253906 C 12.320312 104.878906 22.371094 102.15625 22.757812 107.089844 C 22.96875 109.820312 20.515625 112.804688 17.570312 113.371094 C 15.363281 113.796875 12.074219 113.238281 11.726562 110.742188 Z M 13.277344 108.253906 " fill-opacity="1" fill-rule="evenodd"/><path fill="#d0923a" d="M 26.257812 96.058594 C 25.9375 93.289062 30.652344 90.753906 33.230469 91.957031 C 38.035156 94.207031 34.734375 100.738281 30.488281 101.421875 Z M 26.257812 96.058594 " fill-opacity="1" fill-rule="evenodd"/><path fill="#d0923a" d="M 10.523438 100.574219 C 3.476562 95.253906 17.503906 88.128906 16.914062 96.488281 C 16.84375 97.488281 16.574219 98.433594 15.980469 99.273438 Z M 10.523438 100.574219 " fill-opacity="1" fill-rule="evenodd"/><path fill="#d0923a" d="M 20.847656 87.386719 C 16.664062 83.167969 26.722656 77.007812 27.722656 83.625 C 27.847656 84.429688 27.796875 85.304688 27.621094 86.097656 C 27.375 87.226562 26.695312 88.113281 25.851562 88.9375 Z M 20.847656 87.386719 " fill-opacity="1" fill-rule="evenodd"/><path fill="#d0923a" d="M 36.582031 82.78125 C 35.679688 79.882812 41.859375 79.605469 43.519531 80.566406 C 49.144531 83.820312 43.011719 91.410156 37.644531 90.632812 Z M 36.582031 82.78125 " fill-opacity="1" fill-rule="evenodd"/><path fill="#d0923a" d="M 33.566406 73.480469 C 32.914062 72.898438 34.5 72.171875 34.894531 71.980469 C 36.746094 71.078125 41.289062 70.695312 40.839844 73.753906 C 40.417969 76.625 37.164062 78.929688 34.273438 79.605469 C 31.964844 80.144531 29.464844 78.949219 30.289062 76.503906 Z M 33.566406 73.480469 " fill-opacity="1" fill-rule="evenodd"/><path fill="#d0923a" d="M 48.027344 72.429688 C 47.417969 71.570312 48.882812 71.976562 49.351562 72.636719 C 50.332031 74.027344 51.976562 79.09375 49.007812 79.503906 C 46.335938 79.875 44.097656 76.558594 43.835938 74.523438 C 43.683594 73.328125 44.304688 71.449219 45.929688 71.5625 Z M 48.027344 72.429688 " fill-opacity="1" fill-rule="evenodd"/></svg>