<svg xmlns="http://www.w3.org/2000/svg" xmlns:xlink="http://www.w3.org/1999/xlink" width="500" zoomAndPan="magnify" viewBox="0 0 375 374.999991" height="500" preserveAspectRatio="xMidYMid meet" version="1.0"><path fill="#c7d7bb" d="M 160.257812 365.917969 L 152.777344 365.917969 C 151.175781 365.917969 149.574219 365.917969 148.503906 365.382812 C 146.902344 365.382812 145.300781 364.851562 143.695312 364.316406 C 140.492188 363.78125 137.285156 362.179688 134.617188 359.507812 C 130.34375 356.304688 126.070312 350.960938 125.535156 339.742188 C 125.535156 339.742188 125 332.265625 125 330.128906 C 124.464844 319.445312 123.929688 310.363281 123.929688 301.816406 L 123.929688 291.667969 C 123.929688 285.789062 123.929688 279.378906 123.398438 273.503906 C 122.863281 266.558594 122.863281 258.546875 122.328125 250.535156 L 78.527344 250.535156 C 70.511719 250.535156 63.035156 250 55.554688 249.464844 L 39.53125 249.464844 C 37.394531 249.464844 34.722656 249.464844 32.050781 248.398438 C 28.3125 247.328125 24.574219 245.726562 20.832031 242.519531 C 16.027344 238.246094 13.355469 232.371094 13.355469 225.960938 L 13.355469 217.949219 L 13.890625 213.675781 L 13.890625 205.664062 C 13.890625 202.992188 13.355469 199.785156 12.820312 196.046875 C 11.753906 189.636719 11.21875 183.226562 10.683594 177.351562 L 10.148438 173.609375 C 9.617188 170.40625 9.617188 167.199219 9.082031 163.460938 L 9.082031 149.574219 C 9.082031 147.96875 9.082031 146.367188 9.617188 145.300781 C 9.617188 143.695312 10.148438 142.09375 10.683594 140.492188 C 11.753906 137.285156 12.820312 134.082031 15.492188 131.410156 C 18.695312 128.207031 24.039062 123.398438 35.257812 122.863281 L 44.871094 122.328125 C 55.554688 121.792969 64.636719 121.261719 73.183594 121.261719 L 83.332031 121.261719 C 89.210938 121.261719 95.085938 121.261719 101.496094 120.726562 C 106.835938 120.726562 112.714844 120.191406 118.589844 120.191406 C 119.125 111.109375 119.65625 101.496094 120.726562 92.949219 C 120.726562 89.742188 121.261719 86.539062 121.261719 82.800781 L 122.863281 61.964844 L 123.398438 56.089844 C 124.464844 48.078125 125 39.53125 126.070312 30.984375 C 126.601562 24.574219 131.410156 19.765625 135.148438 17.09375 C 136.21875 16.558594 137.285156 15.492188 138.890625 14.957031 C 142.09375 12.285156 146.367188 10.683594 150.640625 10.683594 L 153.3125 10.683594 C 158.652344 10.148438 163.996094 10.148438 169.335938 10.148438 L 172.542969 10.148438 C 181.625 10.148438 190.707031 10.683594 198.183594 11.753906 L 202.992188 11.753906 C 207.800781 11.753906 213.675781 11.753906 220.085938 12.820312 L 221.6875 12.820312 C 223.824219 12.820312 225.960938 13.355469 228.632812 13.890625 C 232.90625 14.957031 237.179688 16.558594 241.453125 20.300781 C 245.726562 24.039062 247.863281 28.3125 249.464844 31.515625 C 250 33.652344 251.070312 36.859375 251.070312 38.996094 C 251.601562 42.734375 252.671875 45.941406 252.671875 48.609375 C 253.207031 53.417969 253.738281 58.226562 253.738281 63.570312 C 253.738281 71.582031 253.738281 79.058594 253.207031 86.539062 L 253.207031 91.878906 C 253.207031 94.015625 253.207031 95.621094 252.671875 97.757812 C 252.671875 100.425781 252.136719 103.097656 252.136719 106.304688 L 252.136719 116.453125 C 262.285156 116.988281 272.96875 117.519531 282.585938 118.589844 C 285.789062 118.589844 288.996094 119.125 292.734375 119.125 L 313.570312 120.726562 L 319.445312 121.261719 C 326.921875 121.792969 336.003906 122.863281 344.550781 123.933594 C 350.960938 124.464844 355.769531 129.273438 358.441406 133.011719 C 358.972656 134.082031 360.042969 135.148438 360.578125 136.753906 C 363.246094 139.957031 364.851562 144.230469 364.851562 148.503906 L 364.851562 151.175781 C 365.382812 156.515625 365.382812 161.859375 365.382812 167.199219 C 365.382812 177.351562 364.851562 188.035156 363.78125 196.582031 L 363.78125 201.390625 C 363.78125 206.195312 363.78125 212.605469 362.714844 218.484375 L 362.714844 220.085938 C 362.714844 222.222656 362.179688 224.359375 361.644531 227.03125 C 360.578125 231.304688 358.972656 235.578125 355.234375 239.851562 C 351.496094 244.125 347.222656 246.261719 344.015625 247.863281 C 340.8125 249.464844 338.140625 250 336.003906 250.535156 C 332.265625 251.070312 329.058594 252.136719 326.390625 252.136719 C 322.117188 251.070312 317.308594 251.070312 311.433594 251.070312 L 308.226562 251.070312 C 301.28125 251.070312 294.871094 250.535156 288.460938 250.535156 L 283.121094 250.535156 C 280.984375 250.535156 279.378906 250.535156 277.242188 250 C 274.574219 250 271.902344 249.464844 268.695312 249.464844 L 252.671875 249.464844 L 252.671875 296.472656 C 252.671875 303.953125 252.136719 311.964844 251.601562 319.445312 L 251.070312 326.921875 L 251.070312 335.46875 C 251.070312 337.605469 251.070312 340.277344 250 342.949219 C 248.933594 346.6875 247.328125 350.425781 244.125 354.167969 C 239.851562 358.972656 233.972656 361.644531 227.5625 361.644531 L 225.960938 361.644531 C 224.359375 361.644531 222.757812 361.644531 221.152344 361.109375 L 219.550781 361.109375 L 215.8125 360.578125 L 208.332031 360.578125 C 205.664062 360.578125 202.457031 361.109375 198.71875 361.644531 C 192.308594 362.714844 185.898438 363.246094 180.023438 363.78125 L 176.28125 364.316406 C 173.078125 364.851562 169.871094 364.851562 166.132812 365.382812 C 164.53125 365.917969 162.394531 365.917969 160.257812 365.917969 Z M 160.257812 365.917969 " fill-opacity="1" fill-rule="nonzero"/><path fill="#79a6a3" d="M 172.542969 18.695312 C 181.089844 18.695312 190.171875 19.230469 197.648438 20.300781 L 202.992188 20.300781 C 207.800781 20.300781 213.140625 20.300781 219.015625 21.367188 L 220.621094 21.367188 C 222.222656 21.367188 223.824219 21.902344 225.425781 22.4375 C 228.097656 23.503906 231.835938 24.574219 234.507812 26.710938 C 237.179688 29.378906 238.78125 31.515625 240.382812 34.722656 C 241.453125 36.859375 241.988281 39.53125 242.519531 41.132812 C 243.054688 44.335938 243.589844 47.007812 244.125 49.679688 C 244.65625 53.953125 244.65625 58.226562 245.191406 63.570312 C 245.191406 71.046875 245.191406 78.527344 244.65625 86.003906 L 244.65625 91.347656 C 244.65625 92.949219 244.65625 95.085938 244.125 96.6875 C 244.125 99.359375 243.589844 102.5625 243.589844 105.234375 L 243.589844 125 L 251.601562 125 C 261.753906 125.535156 272.4375 126.066406 282.585938 127.136719 C 285.789062 127.136719 289.53125 127.671875 292.734375 127.671875 L 313.570312 129.273438 L 319.980469 129.808594 C 327.992188 130.875 336.539062 131.410156 344.550781 132.480469 C 347.222656 133.011719 350.425781 135.148438 351.496094 137.285156 L 353.097656 140.492188 C 355.234375 142.628906 356.304688 145.300781 356.304688 147.96875 L 356.304688 150.640625 C 356.835938 155.984375 356.835938 160.789062 356.835938 166.132812 C 356.835938 175.746094 356.304688 186.429688 355.769531 194.445312 L 355.769531 199.785156 C 355.769531 204.59375 355.769531 209.9375 354.699219 215.8125 L 354.699219 217.414062 C 354.699219 219.015625 354.167969 220.621094 353.632812 222.222656 C 352.5625 224.894531 351.496094 228.632812 349.359375 231.304688 C 346.6875 233.972656 344.550781 235.578125 341.347656 237.179688 C 339.210938 238.246094 336.539062 238.78125 334.9375 239.316406 C 331.730469 239.851562 329.058594 240.382812 326.390625 240.917969 C 322.117188 241.453125 317.84375 241.453125 312.5 241.988281 L 309.296875 241.988281 C 302.882812 241.988281 296.472656 241.453125 290.0625 241.453125 L 284.722656 241.453125 C 283.121094 241.453125 280.984375 241.453125 279.378906 240.917969 C 275.105469 240.382812 272.4375 240.382812 269.230469 240.382812 L 244.125 240.382812 C 244.125 249.464844 244.125 259.082031 243.589844 267.628906 L 243.589844 297.007812 C 243.589844 304.488281 243.054688 312.5 242.519531 319.980469 L 241.988281 327.457031 L 241.988281 336.003906 C 241.988281 337.605469 241.988281 339.210938 241.453125 340.8125 C 240.382812 343.484375 239.851562 346.152344 237.714844 348.289062 C 235.042969 350.960938 231.304688 353.097656 227.5625 353.097656 L 221.152344 353.097656 L 219.015625 352.5625 L 207.800781 352.5625 C 204.59375 352.5625 201.390625 353.097656 197.648438 353.632812 C 191.238281 354.167969 185.363281 355.234375 178.953125 355.769531 L 175.746094 355.769531 C 172.542969 356.304688 169.335938 356.304688 166.132812 356.304688 L 153.3125 356.304688 C 152.242188 356.304688 150.640625 356.304688 149.574219 355.769531 C 148.503906 355.769531 147.4375 355.234375 146.367188 355.234375 C 144.230469 354.699219 142.628906 353.632812 141.027344 352.5625 C 137.285156 349.894531 135.683594 345.621094 135.148438 339.742188 L 135.148438 336.539062 C 135.148438 334.402344 135.148438 332.265625 134.617188 330.128906 C 134.082031 319.445312 133.546875 310.363281 133.546875 301.816406 L 133.546875 292.199219 C 133.546875 286.324219 133.546875 279.914062 133.011719 273.503906 C 132.480469 264.421875 131.945312 254.273438 131.945312 244.125 L 131.945312 241.988281 L 79.058594 241.988281 C 71.582031 241.988281 63.570312 241.453125 56.089844 240.917969 L 48.609375 240.382812 L 40.0625 240.382812 C 38.460938 240.382812 36.859375 240.382812 35.257812 239.851562 C 32.585938 238.78125 29.914062 238.246094 27.777344 236.109375 C 25.105469 233.441406 22.96875 229.699219 22.96875 225.960938 L 22.96875 205.664062 C 22.96875 202.457031 22.4375 199.253906 21.902344 195.511719 C 21.367188 189.101562 20.300781 183.226562 19.765625 176.816406 L 19.765625 173.609375 C 19.230469 170.40625 19.230469 167.199219 19.230469 163.996094 L 19.230469 151.710938 C 19.230469 150.640625 19.230469 149.039062 19.765625 147.96875 C 19.765625 146.902344 20.300781 145.832031 20.300781 144.765625 C 20.832031 142.628906 21.902344 141.027344 22.96875 139.421875 C 25.640625 135.683594 29.914062 134.082031 35.789062 133.546875 L 38.996094 133.546875 C 41.132812 133.546875 43.269531 133.546875 45.40625 133.011719 C 56.089844 132.480469 65.171875 131.945312 73.71875 131.945312 L 83.332031 131.945312 C 89.210938 131.945312 95.621094 131.945312 102.03125 131.410156 C 110.042969 130.875 119.125 130.875 127.671875 130.34375 L 127.671875 125.535156 C 128.207031 115.382812 128.738281 104.699219 129.808594 94.550781 C 129.808594 91.347656 130.34375 87.605469 130.34375 84.402344 L 131.945312 63.566406 L 132.480469 57.15625 C 133.546875 48.078125 134.617188 39.53125 135.683594 31.515625 C 136.21875 28.847656 138.355469 25.640625 140.492188 24.574219 L 143.695312 22.96875 C 145.832031 20.832031 148.503906 19.765625 151.175781 19.765625 L 153.847656 19.765625 C 159.1875 19.230469 163.996094 19.230469 169.335938 19.230469 C 170.40625 18.695312 171.472656 18.695312 172.542969 18.695312 M 172.542969 0 L 168.804688 0 C 163.460938 0 158.121094 0.535156 152.777344 0.535156 L 150.105469 0.535156 C 144.230469 1.066406 138.890625 2.671875 134.082031 5.875 C 132.480469 6.410156 131.410156 7.480469 129.808594 8.011719 C 122.863281 13.355469 118.054688 21.367188 116.988281 28.847656 C 115.917969 37.394531 115.382812 45.941406 114.316406 53.953125 L 113.78125 60.363281 C 113.246094 67.84375 112.714844 74.785156 112.179688 81.730469 C 112.179688 84.9375 111.644531 88.140625 111.644531 91.878906 L 110.042969 111.109375 C 106.835938 111.109375 104.167969 111.644531 100.960938 111.644531 C 95.085938 112.179688 89.210938 112.179688 83.332031 112.179688 L 73.183594 112.179688 C 64.636719 112.179688 55.554688 112.714844 44.335938 113.246094 C 42.199219 113.246094 40.0625 113.246094 37.925781 113.78125 L 34.722656 113.78125 C 20.300781 114.316406 12.285156 120.726562 8.011719 126.601562 C 4.808594 130.34375 2.671875 134.617188 1.601562 138.890625 C 1.070312 141.027344 0.535156 142.628906 0.535156 144.765625 C 0.535156 146.367188 0 147.96875 0 149.574219 L 0 164.53125 C 0 168.269531 0.535156 171.472656 1.070312 174.679688 L 1.070312 177.882812 C 1.601562 183.761719 2.136719 190.707031 3.207031 197.117188 C 3.738281 200.855469 3.738281 203.527344 4.273438 206.195312 L 4.273438 217.949219 C 4.273438 220.085938 3.738281 222.222656 3.738281 224.894531 L 3.738281 225.425781 C 4.273438 233.972656 8.011719 242.519531 14.421875 248.398438 C 19.765625 253.738281 26.175781 255.34375 29.378906 256.410156 C 33.652344 257.480469 37.394531 258.011719 39.53125 258.011719 L 48.078125 258.011719 L 55.019531 258.546875 C 62.5 259.082031 70.511719 259.082031 77.992188 259.617188 L 113.78125 259.617188 C 113.78125 264.421875 114.316406 269.230469 114.316406 274.039062 C 114.851562 279.914062 114.851562 285.789062 114.851562 291.667969 L 114.851562 302.351562 C 114.851562 310.898438 115.382812 319.980469 115.917969 331.195312 C 115.917969 333.332031 115.917969 335.46875 116.453125 337.605469 L 116.453125 340.8125 C 116.988281 355.234375 123.398438 363.246094 129.273438 367.519531 C 133.011719 370.726562 137.285156 372.863281 141.558594 373.929688 C 143.695312 374.464844 145.300781 375 147.4375 375 C 149.039062 375 150.640625 375.535156 152.242188 375.535156 L 167.199219 375.535156 C 170.941406 375.535156 174.144531 375 177.351562 374.464844 L 180.554688 374.464844 C 186.433594 373.929688 193.375 373.398438 199.785156 372.328125 C 203.527344 371.792969 206.195312 371.792969 208.867188 371.261719 L 220.085938 371.261719 C 221.6875 371.261719 223.289062 371.792969 225.960938 371.792969 L 228.097656 371.792969 C 236.644531 371.261719 245.191406 367.519531 251.070312 361.109375 C 256.410156 355.769531 258.011719 349.359375 259.082031 346.152344 C 260.148438 341.878906 260.683594 338.140625 260.683594 336.003906 L 260.683594 327.457031 L 261.753906 320.511719 C 262.285156 313.035156 262.285156 305.019531 262.820312 297.542969 L 262.820312 259.082031 L 269.230469 259.082031 C 271.902344 259.082031 274.574219 259.082031 277.242188 259.617188 C 279.378906 259.617188 280.984375 259.617188 283.121094 260.148438 L 288.460938 260.148438 C 294.871094 260.683594 301.816406 260.683594 308.761719 260.683594 L 311.964844 260.683594 C 317.84375 260.683594 322.648438 260.148438 327.992188 259.617188 C 331.195312 259.082031 334.9375 258.546875 338.675781 257.480469 C 341.347656 256.945312 344.550781 255.875 348.824219 254.273438 C 352.5625 252.671875 357.90625 249.464844 363.246094 244.125 C 368.054688 238.78125 370.191406 232.90625 371.792969 228.097656 C 372.863281 224.894531 372.863281 221.6875 373.398438 219.550781 L 373.398438 218.484375 C 373.933594 211.539062 374.464844 205.664062 374.464844 200.320312 L 374.464844 196.046875 C 375 187.5 376.070312 176.816406 376.070312 166.132812 C 376.070312 160.789062 375.535156 155.449219 375.535156 150.105469 L 375.535156 147.4375 C 375 141.558594 373.398438 136.21875 370.191406 131.410156 C 369.65625 129.808594 368.589844 128.738281 368.054688 127.136719 C 363.246094 119.65625 355.769531 114.851562 347.757812 114.316406 C 339.210938 113.246094 330.664062 112.714844 322.648438 111.644531 L 316.238281 111.109375 C 308.761719 110.578125 301.816406 110.042969 294.871094 109.507812 C 291.667969 109.507812 288.460938 108.972656 284.722656 108.972656 C 277.777344 108.441406 270.300781 107.90625 263.355469 107.371094 L 263.355469 106.304688 C 263.355469 103.632812 263.355469 100.960938 263.890625 98.289062 C 263.890625 96.6875 263.890625 94.550781 264.421875 92.949219 L 264.421875 87.605469 C 264.957031 80.128906 264.957031 72.117188 264.957031 64.101562 C 264.957031 58.226562 264.421875 53.417969 263.890625 48.078125 C 263.355469 44.871094 262.820312 41.132812 261.753906 37.394531 C 261.21875 34.722656 260.148438 31.515625 258.546875 27.242188 C 256.945312 23.503906 253.738281 18.164062 248.398438 12.820312 C 243.054688 8.011719 237.179688 5.875 232.371094 4.273438 C 229.167969 3.203125 225.960938 3.203125 223.824219 2.671875 L 222.757812 2.671875 C 214.742188 1.601562 208.332031 1.601562 202.992188 1.601562 L 198.71875 1.601562 C 191.238281 0.535156 182.15625 0 172.542969 0 Z M 172.542969 0 " fill-opacity="1" fill-rule="nonzero"/></svg>