<svg xmlns="http://www.w3.org/2000/svg" xmlns:xlink="http://www.w3.org/1999/xlink" width="500" zoomAndPan="magnify" viewBox="0 0 375 374.999991" height="500" preserveAspectRatio="xMidYMid meet" version="1.0"><defs><clipPath id="ff9b0750a7"><path d="M 67.734375 83 L 189 83 L 189 169 L 67.734375 169 Z M 67.734375 83 " clip-rule="nonzero"/></clipPath><clipPath id="375507be87"><path d="M 100.570312 184.121094 L 281.640625 184.121094 L 281.640625 375 L 100.570312 375 Z M 100.570312 184.121094 " clip-rule="nonzero"/></clipPath><clipPath id="bd8d38c352"><path d="M 122 208.75 L 279.3125 208.75 L 279.3125 375 L 122 375 Z M 122 208.75 " clip-rule="nonzero"/></clipPath><clipPath id="44f58a588b"><path d="M 223.90625 144.070312 L 306.945312 144.070312 L 306.945312 193.21875 L 223.90625 193.21875 Z M 223.90625 144.070312 " clip-rule="nonzero"/></clipPath><clipPath id="711191acb7"><path d="M 224 121 L 306.984375 121 L 306.984375 186 L 224 186 Z M 224 121 " clip-rule="nonzero"/></clipPath></defs><g clip-path="url(#ff9b0750a7)"><path fill="#7ea02a" d="M 188.523438 167.65625 C 188.523438 167.65625 138.316406 174.578125 115.621094 156.921875 C 92.871094 139.261719 85.757812 114.128906 85.757812 114.128906 C 85.757812 114.128906 75.835938 85.6875 67.769531 85.6875 C 67.769531 85.6875 69.875 84.53125 73.933594 83.53125 C 80.394531 91.15625 86.410156 108.410156 86.410156 108.410156 C 86.410156 108.410156 93.523438 133.542969 116.222656 151.25 C 137.667969 167.90625 183.414062 162.6875 188.621094 162.035156 C 188.773438 165.597656 188.523438 167.65625 188.523438 167.65625 " fill-opacity="1" fill-rule="nonzero"/></g><path fill="#84ae28" d="M 188.621094 162.039062 C 183.414062 162.6875 137.667969 167.90625 116.222656 151.25 C 93.523438 133.542969 86.410156 108.410156 86.410156 108.410156 C 86.410156 108.410156 80.394531 91.15625 73.933594 83.53125 C 84.753906 80.671875 109.457031 78.363281 144.980469 99.433594 C 182.609375 121.753906 188.070312 150.199219 188.621094 162.039062 " fill-opacity="1" fill-rule="nonzero"/><path fill="#a4c855" d="M 188.347656 167.917969 C 179.175781 161.941406 170.148438 155.738281 161.324219 149.199219 C 156.957031 145.871094 152.640625 142.460938 148.492188 138.769531 C 146.40625 136.933594 144.386719 135.003906 142.472656 132.84375 C 140.644531 130.769531 138.917969 128.933594 136.941406 127.070312 C 129.082031 119.761719 120.167969 113.539062 111.585938 107.042969 C 102.878906 100.6875 94.25 94.15625 84.292969 89.753906 L 84.421875 89.1875 C 90.015625 89.742188 95.316406 91.839844 100.375 94.128906 C 105.449219 96.445312 110.226562 99.296875 114.902344 102.277344 C 124.191406 108.351562 132.503906 115.734375 140.222656 123.78125 C 142.132812 125.773438 144.027344 128.03125 145.707031 130.152344 C 147.316406 132.175781 149.152344 134.140625 151.074219 136.019531 C 154.902344 139.804688 158.988281 143.40625 163.136719 146.933594 C 171.410156 154.023438 179.96875 160.84375 188.679688 167.441406 L 188.347656 167.917969 " fill-opacity="1" fill-rule="nonzero"/><path fill="#a4c855" d="M 171.777344 155.65625 C 164.640625 153.769531 157.324219 152.5 150.066406 152.167969 C 146.425781 152.042969 142.851562 152.472656 139.414062 152.964844 C 135.945312 153.4375 132.644531 154.539062 129.808594 156.996094 L 129.570312 156.824219 C 131.160156 153.171875 135.125 151.101562 138.8125 150.125 C 142.617188 149.171875 146.511719 149.40625 150.234375 149.851562 C 157.722656 150.722656 164.949219 152.683594 171.871094 155.378906 L 171.777344 155.65625 " fill-opacity="1" fill-rule="nonzero"/><path fill="#a4c855" d="M 150.617188 138.359375 C 149.089844 134.71875 148.21875 130.78125 148.09375 126.730469 C 148 124.710938 148.011719 122.59375 148.714844 120.625 C 149.488281 118.695312 150.589844 116.84375 152.292969 115.582031 L 152.535156 115.734375 C 152.277344 117.835938 151.726562 119.539062 151.511719 121.390625 C 151.246094 123.191406 150.632812 124.941406 150.414062 126.824219 C 150.03125 130.550781 150.183594 134.449219 150.894531 138.265625 L 150.617188 138.359375 " fill-opacity="1" fill-rule="nonzero"/><path fill="#a4c855" d="M 140.09375 127.132812 C 135.941406 127.410156 131.800781 128.027344 127.910156 129.101562 C 125.960938 129.675781 124.210938 130.601562 122.488281 131.308594 C 120.714844 132.007812 119.207031 132.910156 117.753906 134.542969 L 117.480469 134.453125 C 117.375 132.054688 119.238281 130.015625 121.089844 128.765625 C 123.039062 127.503906 125.292969 127.125 127.417969 126.832031 C 131.691406 126.207031 135.933594 126.285156 140.109375 126.839844 L 140.09375 127.132812 " fill-opacity="1" fill-rule="nonzero"/><path fill="#a4c855" d="M 129.550781 115.703125 C 128.183594 112.8125 127.09375 109.792969 126.359375 106.621094 C 125.960938 105.050781 125.507812 103.402344 125.730469 101.695312 C 126.023438 100.0625 126.507812 98.140625 128.109375 97.097656 L 128.355469 97.25 C 128.320312 98.949219 128.421875 100.285156 128.628906 101.78125 C 128.792969 103.226562 128.578125 104.738281 128.65625 106.289062 C 128.851562 109.359375 129.269531 112.496094 129.828125 115.613281 L 129.550781 115.703125 " fill-opacity="1" fill-rule="nonzero"/><path fill="#a4c855" d="M 114.652344 105.792969 C 111.046875 105.90625 107.449219 106.222656 103.984375 106.792969 C 102.253906 107.140625 100.628906 107.738281 99.011719 108.039062 C 97.339844 108.332031 95.910156 108.691406 94.308594 109.6875 L 94.054688 109.542969 C 94.355469 107.394531 96.417969 106.050781 98.125 105.273438 C 99.953125 104.511719 101.902344 104.523438 103.753906 104.480469 C 107.46875 104.40625 111.109375 104.777344 114.683594 105.503906 L 114.652344 105.792969 " fill-opacity="1" fill-rule="nonzero"/><path fill="#647d2a" d="M 191.726562 168.257812 C 191.726562 168.257812 257.425781 150.609375 275.867188 116.1875 C 294.367188 81.742188 289.523438 46.019531 289.523438 46.019531 C 289.523438 46.019531 286.355469 4.613281 296.308594 0.359375 C 296.308594 0.359375 293.085938 0.00390625 287.535156 0.863281 C 283.691406 13.96875 285.625 39.089844 285.625 39.089844 C 285.625 39.089844 290.460938 74.808594 272.050781 109.296875 C 254.617188 141.78125 195.339844 159.246094 188.558594 161.160156 C 190.304688 165.769531 191.726562 168.257812 191.726562 168.257812 " fill-opacity="1" fill-rule="nonzero"/><path fill="#6a892c" d="M 188.558594 161.160156 C 195.339844 159.246094 254.613281 141.78125 272.050781 109.296875 C 290.460938 74.808594 285.621094 39.089844 285.621094 39.089844 C 285.621094 39.089844 283.691406 13.972656 287.535156 0.867188 C 272.628906 2.929688 240.898438 13.007812 208.484375 58.527344 C 174.148438 106.75 182.824219 145.8125 188.558594 161.160156 " fill-opacity="1" fill-rule="nonzero"/><path fill="#a4c855" d="M 191.503906 168.128906 C 198.800781 155.214844 205.785156 142.113281 212.269531 128.808594 C 215.523438 122.164062 218.65625 115.460938 221.378906 108.644531 C 222.757812 105.25 223.992188 101.792969 224.910156 98.355469 C 225.851562 94.804688 226.960938 91.035156 228.242188 87.527344 C 233.457031 73.394531 239.855469 59.789062 247.894531 47.117188 C 252.054688 40.878906 256.265625 34.660156 261.121094 28.90625 C 266.003906 23.21875 271.257812 17.625 277.714844 13.679688 L 278.0625 14.148438 C 267.726562 24.691406 260.183594 37.421875 252.855469 50.128906 C 245.640625 62.894531 238.21875 75.683594 232.574219 89.191406 C 231.179688 92.609375 230.0625 95.917969 228.957031 99.503906 C 227.8125 103.191406 226.398438 106.6875 224.855469 110.109375 C 221.796875 116.964844 218.378906 123.585938 214.84375 130.140625 C 207.632812 143.171875 199.96875 155.898438 192 168.433594 L 191.503906 168.128906 " fill-opacity="1" fill-rule="nonzero"/><path fill="#a4c855" d="M 205.65625 143.914062 C 212.828125 136.96875 220.753906 130.765625 229.558594 125.816406 C 233.933594 123.339844 238.640625 121.125 243.78125 120.289062 C 248.804688 119.519531 254.621094 120.007812 258.578125 123.46875 L 258.421875 123.714844 C 253.757812 121.835938 248.925781 121.996094 244.3125 123.144531 C 239.707031 124.261719 235.046875 125.730469 230.625 127.878906 C 221.832031 132.238281 213.542969 137.839844 205.855469 144.125 L 205.65625 143.914062 " fill-opacity="1" fill-rule="nonzero"/><path fill="#a4c855" d="M 222.28125 111.046875 C 221.230469 105.789062 219.417969 100.707031 216.988281 96.074219 C 215.738281 93.753906 214.097656 91.746094 212.714844 89.589844 C 211.351562 87.375 209.648438 85.492188 208.019531 83.203125 L 208.1875 82.96875 C 210.832031 83.933594 213.097656 85.738281 215.003906 87.808594 C 216.851562 89.9375 218.070312 92.515625 219.082031 95.082031 C 221.171875 100.203125 222.34375 105.597656 222.570312 111.019531 L 222.28125 111.046875 " fill-opacity="1" fill-rule="nonzero"/><path fill="#a4c855" d="M 229.371094 90.878906 C 234.304688 88.109375 239.566406 85.890625 245.183594 84.550781 C 247.96875 83.855469 250.941406 83.296875 253.949219 83.8125 C 256.859375 84.355469 260.050781 85.828125 261.363281 88.625 L 261.140625 88.816406 C 258.683594 87.308594 256.222656 86.753906 253.605469 86.695312 C 251.03125 86.609375 248.332031 86.46875 245.601562 86.835938 C 240.175781 87.613281 234.742188 89.148438 229.5 91.136719 L 229.371094 90.878906 " fill-opacity="1" fill-rule="nonzero"/><path fill="#a4c855" d="M 236 71.125 C 235.144531 66.847656 234.074219 62.617188 232.730469 58.554688 C 232.035156 56.519531 231.046875 54.640625 230.382812 52.691406 C 229.738281 50.691406 229 48.871094 227.839844 46.945312 L 228.011719 46.710938 C 230.367188 47.4375 231.863281 49.550781 233.015625 51.480469 C 234.132812 53.507812 234.558594 55.769531 234.96875 57.949219 C 235.859375 62.316406 236.261719 66.703125 236.289062 71.101562 L 236 71.125 " fill-opacity="1" fill-rule="nonzero"/><path fill="#a4c855" d="M 249.1875 50.335938 C 253.28125 47.667969 257.628906 45.398438 262.269531 43.636719 C 264.589844 42.777344 266.996094 41.863281 269.601562 41.8125 C 272.09375 41.8125 275.183594 42.34375 276.773438 44.601562 L 276.59375 44.832031 C 274.226562 44.128906 272.097656 44.273438 269.835938 44.707031 C 267.613281 45.105469 265.28125 45.324219 262.957031 45.859375 C 258.359375 47.058594 253.78125 48.679688 249.328125 50.589844 L 249.1875 50.335938 " fill-opacity="1" fill-rule="nonzero"/><g clip-path="url(#375507be87)"><path fill="#c37b26" d="M 279.269531 208.847656 L 122.011719 208.847656 L 137.152344 374.945312 C 126.1875 374.304688 117.195312 365.652344 116.152344 354.503906 L 100.664062 184.164062 L 281.53125 184.164062 L 279.269531 208.847656 " fill-opacity="1" fill-rule="nonzero"/></g><g clip-path="url(#bd8d38c352)"><path fill="#d28d2e" d="M 279.269531 208.847656 L 265.988281 354.503906 C 264.941406 366.117188 255.195312 375.003906 243.597656 375.003906 L 138.542969 375.003906 C 138.078125 375.003906 137.613281 375.003906 137.152344 374.945312 L 122.011719 208.847656 L 279.269531 208.847656 " fill-opacity="1" fill-rule="nonzero"/></g><path fill="#c37b26" d="M 105.652344 201.703125 L 96.195312 201.703125 C 90.746094 201.703125 86.394531 197.347656 86.394531 191.890625 L 86.394531 173.128906 C 86.394531 167.730469 90.746094 163.316406 96.195312 163.316406 L 105.652344 163.316406 C 100.199219 163.316406 95.847656 167.730469 95.847656 173.128906 L 95.847656 191.890625 C 95.847656 197.347656 100.199219 201.703125 105.652344 201.703125 " fill-opacity="1" fill-rule="nonzero"/><path fill="#d28d2e" d="M 292.496094 173.128906 L 292.496094 191.890625 C 292.496094 197.347656 288.085938 201.703125 282.691406 201.703125 L 105.652344 201.703125 C 100.199219 201.703125 95.847656 197.347656 95.847656 191.890625 L 95.847656 173.128906 C 95.847656 167.730469 100.199219 163.316406 105.652344 163.316406 L 282.691406 163.316406 C 288.085938 163.316406 292.496094 167.730469 292.496094 173.128906 " fill-opacity="1" fill-rule="nonzero"/><path fill="#f3c185" d="M 246.984375 364.175781 L 240.234375 363.324219 C 239.960938 363.292969 239.761719 363.039062 239.796875 362.765625 L 256.96875 225.734375 C 257.003906 225.460938 257.253906 225.261719 257.527344 225.296875 L 264.28125 226.144531 C 264.554688 226.179688 264.75 226.433594 264.71875 226.707031 L 247.546875 363.738281 C 247.511719 364.011719 247.261719 364.207031 246.984375 364.175781 " fill-opacity="1" fill-rule="nonzero"/><g clip-path="url(#44f58a588b)"><path fill="#7ea02a" d="M 299.863281 193.113281 C 300.363281 180.824219 253.964844 167.984375 253.964844 167.984375 C 253.964844 167.984375 218.992188 163.96875 224.503906 144.15625 C 228.664062 157.296875 253.964844 160.207031 253.964844 160.207031 C 253.964844 160.207031 300.363281 173 299.863281 185.289062 C 299.863281 185.289062 305.773438 174.90625 306.777344 161.613281 C 308.230469 178.417969 299.863281 193.113281 299.863281 193.113281 " fill-opacity="1" fill-rule="nonzero"/></g><g clip-path="url(#711191acb7)"><path fill="#84ae28" d="M 306.777344 161.613281 C 305.777344 174.90625 299.863281 185.289062 299.863281 185.289062 C 300.363281 173 253.964844 160.207031 253.964844 160.207031 C 253.964844 160.207031 228.664062 157.296875 224.503906 144.15625 C 224.65625 143.601562 224.855469 143.050781 225.058594 142.449219 C 227.910156 134.976562 233.574219 130.007812 239.738281 126.699219 C 254.21875 118.921875 271.855469 120.578125 285.785156 129.257812 C 300.613281 138.484375 305.875 150.476562 306.777344 161.613281 " fill-opacity="1" fill-rule="nonzero"/></g><path fill="#a4c855" d="M 229.359375 134.710938 C 236.589844 133.785156 243.910156 133.769531 251.230469 134.414062 C 258.519531 135.226562 265.851562 136.6875 272.808594 139.589844 C 279.679688 142.488281 286.59375 146.5 291.296875 152.769531 C 296.074219 158.976562 298.128906 166.765625 298.273438 174.113281 L 297.703125 174.222656 C 294.417969 167.570312 291.515625 161.386719 286.804688 156.445312 C 282.1875 151.621094 277.125 147.011719 270.878906 143.816406 C 264.679688 140.617188 257.800781 138.640625 250.816406 137.285156 C 243.824219 135.90625 236.613281 135.140625 229.414062 135.289062 L 229.359375 134.710938 " fill-opacity="1" fill-rule="nonzero"/><path fill="#a4c855" d="M 243.015625 134.847656 C 247.585938 136.996094 251.605469 140.625 253.957031 145.382812 C 255.144531 147.710938 256.167969 150.320312 256.074219 153.011719 C 256.035156 155.679688 255.402344 158.296875 254.101562 160.574219 L 253.816406 160.507812 C 253.488281 157.890625 253.644531 155.519531 253.179688 153.1875 C 252.914062 150.878906 252.628906 148.5625 251.835938 146.324219 C 250.203125 141.886719 246.945312 137.925781 242.882812 135.105469 L 243.015625 134.847656 " fill-opacity="1" fill-rule="nonzero"/><path fill="#a4c855" d="M 268.699219 140.210938 C 271.820312 143.660156 274.496094 147.558594 276.375 151.949219 C 277.304688 154.132812 278.289062 156.4375 278.28125 158.949219 C 278.203125 161.414062 277.695312 164 276.109375 165.921875 L 275.839844 165.820312 C 275.824219 163.390625 275.789062 161.308594 275.386719 159.179688 C 275.050781 157.078125 274.777344 154.902344 274.195312 152.742188 C 272.910156 148.464844 270.894531 144.296875 268.472656 140.394531 L 268.699219 140.210938 " fill-opacity="1" fill-rule="nonzero"/><path fill="#a4c855" d="M 261.769531 137.914062 C 265.015625 136.960938 268.203125 135.859375 271.238281 134.59375 C 272.746094 133.910156 274.105469 133.015625 275.554688 132.449219 C 277.050781 131.878906 278.328125 131.339844 279.746094 130.269531 L 280.011719 130.378906 C 280.019531 132.429688 278.355469 133.9375 276.957031 134.992188 C 275.4375 136.027344 273.65625 136.382812 271.976562 136.792969 C 268.613281 137.625 265.222656 138.074219 261.816406 138.203125 L 261.769531 137.914062 " fill-opacity="1" fill-rule="nonzero"/><path fill="#a4c855" d="M 287.878906 152.953125 C 290.027344 153.417969 292.1875 153.757812 294.261719 153.851562 C 295.308594 153.867188 296.316406 153.652344 297.25 153.78125 L 300.40625 154.328125 L 300.542969 154.585938 C 299.90625 155.867188 298.585938 156.367188 297.394531 156.683594 C 296.148438 156.945312 294.96875 156.484375 293.867188 156.140625 C 291.640625 155.492188 289.617188 154.472656 287.757812 153.21875 L 287.878906 152.953125 " fill-opacity="1" fill-rule="nonzero"/><path fill="#000000" d="M 169.550781 228.75 C 161.484375 233.527344 155.039062 234.742188 150.992188 234.882812 C 149.925781 236.878906 149.3125 239.160156 149.3125 241.582031 C 149.3125 249.429688 155.667969 255.789062 163.503906 255.789062 C 171.339844 255.789062 177.691406 249.429688 177.691406 241.582031 C 177.691406 235.90625 174.355469 231.023438 169.550781 228.75 " fill-opacity="1" fill-rule="nonzero"/><path fill="#ffffff" d="M 165.835938 236.898438 C 165.835938 239.484375 163.730469 241.582031 161.132812 241.582031 C 158.535156 241.582031 156.429688 239.484375 156.429688 236.898438 C 156.429688 234.3125 158.535156 232.214844 161.132812 232.214844 C 163.730469 232.214844 165.835938 234.3125 165.835938 236.898438 " fill-opacity="1" fill-rule="nonzero"/><path fill="#ffffff" d="M 156.429688 243.515625 C 156.429688 244.582031 155.578125 245.445312 154.523438 245.445312 C 153.472656 245.445312 152.617188 244.582031 152.617188 243.515625 C 152.617188 242.449219 153.472656 241.582031 154.523438 241.582031 C 155.578125 241.582031 156.429688 242.449219 156.429688 243.515625 " fill-opacity="1" fill-rule="nonzero"/><path fill="#ffffff" d="M 171.933594 236.921875 C 171.933594 238.257812 171.070312 239.339844 170 239.339844 C 168.929688 239.339844 168.0625 238.257812 168.0625 236.921875 C 168.0625 235.585938 168.929688 234.503906 170 234.503906 C 171.070312 234.503906 171.933594 235.585938 171.933594 236.921875 " fill-opacity="1" fill-rule="nonzero"/><path fill="#000000" d="M 149.03125 237.660156 C 146.636719 237.660156 145.191406 237.386719 145.011719 237.351562 L 146.160156 231.65625 L 145.585938 234.503906 L 146.148438 231.652344 C 146.652344 231.753906 158.554688 233.863281 172.941406 222.550781 L 176.523438 227.117188 C 164.953125 236.214844 154.507812 237.660156 149.03125 237.660156 " fill-opacity="1" fill-rule="nonzero"/><path fill="#000000" d="M 218.792969 228.75 C 226.859375 233.527344 233.308594 234.742188 237.351562 234.882812 C 238.421875 236.878906 239.03125 239.160156 239.03125 241.582031 C 239.03125 249.429688 232.679688 255.789062 224.84375 255.789062 C 217.007812 255.789062 210.65625 249.429688 210.65625 241.582031 C 210.65625 235.90625 213.988281 231.023438 218.792969 228.75 " fill-opacity="1" fill-rule="nonzero"/><path fill="#ffffff" d="M 222.507812 236.898438 C 222.507812 239.484375 224.613281 241.582031 227.210938 241.582031 C 229.808594 241.582031 231.914062 239.484375 231.914062 236.898438 C 231.914062 234.3125 229.808594 232.214844 227.210938 232.214844 C 224.613281 232.214844 222.507812 234.3125 222.507812 236.898438 " fill-opacity="1" fill-rule="nonzero"/><path fill="#ffffff" d="M 231.914062 243.515625 C 231.914062 244.582031 232.765625 245.445312 233.820312 245.445312 C 234.871094 245.445312 235.726562 244.582031 235.726562 243.515625 C 235.726562 242.449219 234.871094 241.582031 233.820312 241.582031 C 232.765625 241.582031 231.914062 242.449219 231.914062 243.515625 " fill-opacity="1" fill-rule="nonzero"/><path fill="#ffffff" d="M 216.410156 236.921875 C 216.410156 238.257812 217.277344 239.339844 218.347656 239.339844 C 219.414062 239.339844 220.28125 238.257812 220.28125 236.921875 C 220.28125 235.585938 219.414062 234.503906 218.347656 234.503906 C 217.277344 234.503906 216.410156 235.585938 216.410156 236.921875 " fill-opacity="1" fill-rule="nonzero"/><path fill="#000000" d="M 239.3125 237.660156 C 233.835938 237.660156 223.394531 236.214844 211.824219 227.117188 L 215.402344 222.550781 C 229.945312 233.976562 242.058594 231.691406 242.183594 231.65625 L 243.332031 237.351562 C 243.152344 237.386719 241.703125 237.660156 239.3125 237.660156 " fill-opacity="1" fill-rule="nonzero"/><path fill="#000000" d="M 196.316406 280.992188 C 195.3125 276.847656 193.539062 274.167969 191.050781 273.015625 C 186.914062 271.109375 181.695312 273.703125 181.644531 273.730469 L 178.988281 268.570312 C 179.300781 268.410156 186.703125 264.644531 193.433594 267.722656 C 197.636719 269.644531 200.503906 273.648438 201.953125 279.625 L 196.316406 280.992188 " fill-opacity="1" fill-rule="nonzero"/></svg>