<svg xmlns="http://www.w3.org/2000/svg" xmlns:xlink="http://www.w3.org/1999/xlink" width="600" zoomAndPan="magnify" viewBox="0 0 450 449.999984" height="600" preserveAspectRatio="xMidYMid meet" version="1.0"><defs><clipPath id="ab816c101f"><path d="M 158 99.160156 L 319 99.160156 L 319 135 L 158 135 Z M 158 99.160156 " clip-rule="nonzero"/></clipPath><clipPath id="c1bb70d034"><path d="M 163.730469 118.378906 C 163.730469 118.378906 112.75 286.753906 125.398438 318.421875 C 141.863281 359.644531 318.085938 355.992188 342.765625 316.417969 C 356.039062 295.128906 304.78125 118.378906 304.78125 118.378906 C 295.714844 95.546875 199.015625 90.460938 163.730469 118.378906 Z M 163.730469 118.378906 " clip-rule="evenodd"/></clipPath><clipPath id="f6dbbed4c2"><path d="M 72.230469 130.648438 L 98 130.648438 L 98 167 L 72.230469 167 Z M 72.230469 130.648438 " clip-rule="nonzero"/></clipPath><clipPath id="461dc4e98a"><path d="M 72.234375 150.9375 C 72.234375 150.9375 128.464844 249.15625 147.097656 261.253906 C 161.929688 270.882812 187.714844 251.539062 175.152344 220.355469 C 166.347656 198.492188 92.226562 130.78125 92.226562 130.78125 Z M 72.234375 150.9375 " clip-rule="evenodd"/></clipPath></defs><path fill="#f8ab3e" d="M 316.632812 180.398438 C 320.515625 170.007812 325.214844 153.628906 331.996094 139.679688 C 336.042969 131.351562 340.660156 123.859375 346.996094 120.175781 C 356.152344 114.703125 363.84375 118.441406 369.636719 124.585938 C 377.171875 132.574219 382.183594 144.3125 383.511719 152.945312 C 385.125 163.15625 382.410156 172.601562 378.125 181.695312 C 370.691406 197.46875 358.847656 212.289062 351.957031 227.535156 C 343.949219 245.339844 343.414062 261.582031 337.496094 276.296875 C 334.195312 284.5 328.949219 292.160156 318.726562 299.257812 C 315.097656 301.730469 314.339844 306.433594 317.03125 309.761719 C 319.722656 313.089844 324.851562 313.785156 328.476562 311.316406 C 338.261719 304.792969 344.597656 297.785156 349.097656 290.414062 C 359.226562 273.820312 358.746094 254.933594 368.667969 234.039062 C 377.121094 216.152344 392.351562 198.925781 399.351562 179.953125 C 402.804688 170.589844 404.378906 160.835938 402.898438 150.492188 C 400.824219 136.449219 391.414062 116.273438 377.425781 106.378906 C 366.027344 98.316406 351.972656 95.851562 336.410156 105.539062 C 329.464844 109.960938 323.539062 117.246094 318.964844 126.167969 C 310.730469 142.230469 306.257812 163.53125 302.367188 176.351562 C 301.148438 179.960938 303.355469 183.800781 307.292969 184.917969 C 311.230469 186.035156 315.414062 184.011719 316.632812 180.398438 Z M 316.632812 180.398438 " fill-opacity="1" fill-rule="evenodd"/><path fill="#ffc168" d="M 163.730469 118.378906 C 163.730469 118.378906 112.75 286.753906 125.398438 318.421875 C 141.863281 359.644531 318.085938 355.992188 342.765625 316.417969 C 356.039062 295.128906 304.78125 118.378906 304.78125 118.378906 C 295.714844 95.546875 199.019531 90.460938 163.730469 118.378906 Z M 163.730469 118.378906 " fill-opacity="1" fill-rule="evenodd"/><g clip-path="url(#ab816c101f)"><g clip-path="url(#c1bb70d034)"><path fill="#d0923a" d="M 158.117188 117.703125 C 173.804688 128.53125 209.292969 133.675781 237.246094 134.078125 C 259.40625 134.394531 286.808594 131.058594 304.90625 118.085938 C 329.824219 100.226562 317.792969 74.273438 290.546875 65.722656 C 256.144531 54.929688 216.097656 62.867188 182.488281 72.144531 Z M 158.117188 117.703125 " fill-opacity="1" fill-rule="evenodd"/></g></g><path fill="#a29b41" d="M 247.148438 234.574219 C 247.847656 234.996094 248 236.019531 248.28125 236.96875 C 248.855469 238.898438 249.144531 240.984375 249.488281 242.4375 C 251.878906 252.664062 253.621094 262.984375 253.996094 273.5 C 254.078125 275.789062 255.972656 277.578125 258.222656 277.496094 C 260.480469 277.414062 262.242188 275.488281 262.160156 273.199219 C 261.765625 262.136719 259.957031 251.277344 257.4375 240.515625 C 256.976562 238.554688 256.550781 235.585938 255.613281 233.105469 C 254.675781 230.621094 253.230469 228.585938 251.3125 227.429688 C 249.371094 226.261719 246.863281 226.914062 245.714844 228.886719 C 244.566406 230.859375 245.207031 233.40625 247.148438 234.574219 Z M 247.148438 234.574219 " fill-opacity="1" fill-rule="evenodd"/><path fill="#a29b41" d="M 257.703125 274.5 C 257.703125 270.636719 260.667969 266 262.382812 262.753906 C 267.085938 253.871094 272.902344 243.851562 280.582031 237.269531 C 285.179688 233.328125 290.628906 233.066406 289.78125 240.253906 C 289.175781 245.398438 286.1875 250.488281 283.554688 254.796875 C 281.105469 258.8125 278.039062 262.324219 274.441406 265.320312 C 269.148438 269.726562 263.210938 272.929688 257.195312 276.144531 Z M 257.703125 274.5 " fill-opacity="1" fill-rule="evenodd"/><path fill="#a29b41" d="M 256.535156 274.648438 C 254.949219 273.289062 253.796875 271.421875 252.230469 270.007812 C 245.839844 264.234375 237.6875 259.746094 229.3125 257.90625 C 222.984375 256.519531 216.046875 257.378906 210.929688 261.710938 C 207.128906 264.929688 205.503906 270.402344 209.410156 274.257812 C 215.890625 280.648438 227.992188 278.652344 235.941406 277.324219 C 242.964844 276.15625 249.695312 273.882812 256.597656 272.207031 Z M 256.535156 274.648438 " fill-opacity="1" fill-rule="evenodd"/><path fill="#fff9e6" d="M 242.152344 198.246094 C 242.152344 198.246094 256.261719 185.992188 261.914062 187.714844 C 278.601562 192.792969 270.980469 200.113281 267.875 204.855469 C 267.570312 205.320312 263.878906 209.46875 264.136719 209.820312 C 264.671875 210.550781 270.527344 210.132812 271.515625 210.238281 C 279.652344 211.132812 293.359375 215.089844 286.976562 226.066406 C 283.007812 232.886719 273.9375 236.0625 266.507812 235.710938 C 264.011719 235.59375 260.253906 233.707031 257.859375 234.6875 C 256.527344 235.234375 251.089844 245.253906 245.535156 248.039062 C 241.519531 250.050781 236.492188 251.03125 232.160156 249.519531 C 227.730469 247.976562 225.6875 244 225.609375 239.394531 C 225.597656 238.59375 226.617188 233.980469 225.988281 233.496094 C 224.984375 232.730469 219.820312 235.46875 218.660156 235.710938 C 212.011719 237.089844 202.441406 235.140625 200.308594 227.394531 C 197.976562 218.941406 206.847656 214.078125 213.628906 213.148438 C 215.167969 212.9375 222.503906 213.207031 221.285156 211.59375 C 219.011719 208.597656 212.167969 202.304688 212.59375 197.65625 C 214.113281 181.046875 237.566406 192.003906 242.152344 198.246094 Z M 242.152344 198.246094 " fill-opacity="1" fill-rule="evenodd"/><path fill="#f8ab3e" d="M 240.960938 225.210938 C 238 225.496094 236.089844 222.28125 235.554688 220.03125 C 234.527344 215.71875 236.886719 210.367188 241.941406 209.355469 C 248.125 208.117188 255.089844 214.714844 252.800781 220.421875 C 251.902344 222.65625 249.367188 224.222656 247.023438 224.96875 Z M 240.960938 225.210938 " fill-opacity="1" fill-rule="evenodd"/><path fill="#f8ab3e" d="M 72.234375 150.9375 C 72.234375 150.9375 128.464844 249.15625 147.097656 261.253906 C 161.929688 270.882812 187.714844 251.539062 175.152344 220.355469 C 166.347656 198.492188 92.226562 130.78125 92.226562 130.78125 Z M 72.234375 150.9375 " fill-opacity="1" fill-rule="evenodd"/><g clip-path="url(#f6dbbed4c2)"><g clip-path="url(#461dc4e98a)"><path fill="#d0923a" d="M 77.316406 166.445312 C 78.613281 164.820312 80.492188 163.605469 81.917969 162.089844 C 84.972656 158.847656 87.820312 155.339844 90.339844 151.582031 C 93.914062 146.261719 97.445312 139.5625 97.652344 132.6875 C 97.773438 128.839844 96.28125 125.265625 92.324219 125.449219 C 91.203125 125.5 90.121094 125.847656 89.085938 126.277344 C 87.734375 126.832031 86.492188 127.597656 85.289062 128.449219 C 74.226562 136.328125 66.324219 150.074219 61.367188 163.238281 Z M 77.316406 166.445312 " fill-opacity="1" fill-rule="evenodd"/></g></g><path fill="#f8ab3e" d="M 85.757812 106.953125 C 81.019531 107.542969 71.398438 112.761719 68.703125 114.558594 C 57.535156 122 45.875 133.738281 47.929688 147.414062 C 48.457031 150.917969 49.929688 154.167969 52.8125 156.585938 C 59.144531 161.894531 68.492188 159.480469 75.007812 155.839844 C 86.066406 149.65625 94.363281 138.230469 98.03125 126.972656 C 99.71875 121.796875 99.164062 114.347656 97.117188 111.011719 C 95.125 107.761719 89.78125 106.449219 85.757812 106.953125 Z M 85.757812 106.953125 " fill-opacity="1" fill-rule="evenodd"/><path fill="#d0923a" d="M 58.566406 149.253906 C 57.648438 146.035156 67.257812 143.433594 67.628906 148.144531 C 67.828125 150.75 65.484375 153.597656 62.667969 154.140625 C 60.558594 154.546875 57.414062 154.015625 57.082031 151.628906 Z M 58.566406 149.253906 " fill-opacity="1" fill-rule="evenodd"/><path fill="#d0923a" d="M 70.972656 137.613281 C 70.667969 134.964844 75.175781 132.542969 77.640625 133.695312 C 82.234375 135.84375 79.078125 142.078125 75.019531 142.730469 Z M 70.972656 137.613281 " fill-opacity="1" fill-rule="evenodd"/><path fill="#d0923a" d="M 55.929688 141.921875 C 49.195312 136.839844 62.605469 130.042969 62.042969 138.023438 C 61.976562 138.976562 61.714844 139.878906 61.148438 140.683594 Z M 55.929688 141.921875 " fill-opacity="1" fill-rule="evenodd"/><path fill="#d0923a" d="M 65.800781 129.332031 C 61.800781 125.304688 71.417969 119.421875 72.375 125.738281 C 72.492188 126.507812 72.445312 127.339844 72.277344 128.101562 C 72.039062 129.179688 71.394531 130.023438 70.585938 130.8125 Z M 65.800781 129.332031 " fill-opacity="1" fill-rule="evenodd"/><path fill="#d0923a" d="M 80.84375 124.933594 C 79.980469 122.167969 85.890625 121.902344 87.476562 122.820312 C 92.855469 125.925781 86.992188 133.171875 81.859375 132.429688 Z M 80.84375 124.933594 " fill-opacity="1" fill-rule="evenodd"/><path fill="#d0923a" d="M 77.960938 116.054688 C 77.335938 115.496094 78.851562 114.804688 79.230469 114.621094 C 81 113.757812 85.34375 113.394531 84.914062 116.3125 C 84.511719 119.058594 81.402344 121.257812 78.636719 121.902344 C 76.429688 122.417969 74.039062 121.277344 74.828125 118.941406 Z M 77.960938 116.054688 " fill-opacity="1" fill-rule="evenodd"/><path fill="#d0923a" d="M 91.785156 115.050781 C 91.203125 114.230469 92.605469 114.617188 93.050781 115.25 C 93.992188 116.578125 95.5625 121.410156 92.722656 121.804688 C 90.167969 122.15625 88.027344 118.992188 87.777344 117.050781 C 87.632812 115.910156 88.226562 114.113281 89.78125 114.222656 Z M 91.785156 115.050781 " fill-opacity="1" fill-rule="evenodd"/></svg>