<svg xmlns="http://www.w3.org/2000/svg" xmlns:xlink="http://www.w3.org/1999/xlink" width="700" zoomAndPan="magnify" viewBox="0 0 525 525.000007" height="700" preserveAspectRatio="xMidYMid meet" version="1.0"><defs><clipPath id="0dd6db1ec4"><path d="M 191 129.414062 L 361 129.414062 L 361 167 L 191 167 Z M 191 129.414062 " clip-rule="nonzero"/></clipPath><clipPath id="9ac2e2da75"><path d="M 197.796875 149.667969 C 197.796875 149.667969 144.148438 327.082031 157.460938 360.449219 C 174.785156 403.882812 360.242188 400.039062 386.214844 358.335938 C 400.179688 335.90625 346.238281 149.667969 346.238281 149.667969 C 336.699219 125.609375 234.933594 120.25 197.796875 149.667969 Z M 197.796875 149.667969 " clip-rule="evenodd"/></clipPath><clipPath id="37dbcb29ec"><path d="M 101.507812 162.59375 L 129 162.59375 L 129 201 L 101.507812 201 Z M 101.507812 162.59375 " clip-rule="nonzero"/></clipPath><clipPath id="76b2fab82a"><path d="M 101.507812 183.972656 C 101.507812 183.972656 160.683594 287.464844 180.296875 300.214844 C 195.90625 310.359375 223.042969 289.976562 209.820312 257.117188 C 200.550781 234.082031 122.550781 162.734375 122.550781 162.734375 Z M 101.507812 183.972656 " clip-rule="evenodd"/></clipPath></defs><path fill="#f8ab3e" d="M 358.714844 215.015625 C 362.800781 204.066406 367.746094 186.808594 374.878906 172.109375 C 379.136719 163.335938 383.996094 155.441406 390.667969 151.558594 C 400.300781 145.792969 408.394531 149.730469 414.496094 156.207031 C 422.421875 164.621094 427.695312 176.992188 429.09375 186.089844 C 430.792969 196.847656 427.933594 206.800781 423.425781 216.378906 C 415.605469 233.003906 403.136719 248.621094 395.886719 264.683594 C 387.457031 283.441406 386.898438 300.558594 380.667969 316.0625 C 377.191406 324.707031 371.671875 332.777344 360.914062 340.257812 C 357.097656 342.859375 356.300781 347.816406 359.132812 351.324219 C 361.960938 354.832031 367.363281 355.566406 371.175781 352.964844 C 381.472656 346.089844 388.140625 338.707031 392.878906 330.9375 C 403.535156 313.453125 403.03125 293.550781 413.472656 271.535156 C 422.367188 252.6875 438.398438 234.539062 445.765625 214.546875 C 449.398438 204.679688 451.054688 194.402344 449.496094 183.503906 C 447.3125 168.707031 437.414062 147.445312 422.691406 137.019531 C 410.695312 128.523438 395.90625 125.925781 379.523438 136.136719 C 372.21875 140.796875 365.980469 148.472656 361.167969 157.871094 C 352.5 174.800781 347.792969 197.242188 343.699219 210.75 C 342.417969 214.554688 344.738281 218.597656 348.882812 219.777344 C 353.027344 220.957031 357.429688 218.820312 358.714844 215.015625 Z M 358.714844 215.015625 " fill-opacity="1" fill-rule="evenodd"/><path fill="#ffc168" d="M 197.796875 149.667969 C 197.796875 149.667969 144.148438 327.082031 157.460938 360.449219 C 174.785156 403.882812 360.242188 400.039062 386.214844 358.335938 C 400.179688 335.90625 346.238281 149.667969 346.238281 149.667969 C 336.699219 125.609375 234.933594 120.25 197.796875 149.667969 Z M 197.796875 149.667969 " fill-opacity="1" fill-rule="evenodd"/><g clip-path="url(#0dd6db1ec4)"><g clip-path="url(#9ac2e2da75)"><path fill="#d0923a" d="M 191.890625 148.953125 C 208.398438 160.363281 245.75 165.785156 275.167969 166.207031 C 298.484375 166.542969 327.324219 163.023438 346.371094 149.355469 C 372.59375 130.539062 359.933594 103.191406 331.257812 94.183594 C 295.054688 82.808594 252.910156 91.175781 217.539062 100.949219 Z M 191.890625 148.953125 " fill-opacity="1" fill-rule="evenodd"/></g></g><path fill="#a29b41" d="M 285.589844 272.101562 C 286.324219 272.542969 286.480469 273.621094 286.78125 274.625 C 287.382812 276.65625 287.6875 278.851562 288.050781 280.386719 C 290.566406 291.160156 292.402344 302.035156 292.792969 313.113281 C 292.878906 315.527344 294.871094 317.414062 297.242188 317.328125 C 299.617188 317.238281 301.472656 315.210938 301.386719 312.800781 C 300.972656 301.144531 299.066406 289.699219 296.414062 278.363281 C 295.933594 276.292969 295.480469 273.167969 294.496094 270.550781 C 293.511719 267.933594 291.988281 265.789062 289.96875 264.574219 C 287.925781 263.339844 285.285156 264.03125 284.078125 266.109375 C 282.871094 268.1875 283.546875 270.871094 285.589844 272.101562 Z M 285.589844 272.101562 " fill-opacity="1" fill-rule="evenodd"/><path fill="#a29b41" d="M 296.695312 314.171875 C 296.695312 310.097656 299.816406 305.210938 301.621094 301.792969 C 306.570312 292.433594 312.691406 281.878906 320.773438 274.9375 C 325.609375 270.785156 331.347656 270.511719 330.453125 278.082031 C 329.816406 283.503906 326.671875 288.867188 323.902344 293.410156 C 321.324219 297.640625 318.09375 301.339844 314.308594 304.496094 C 308.738281 309.136719 302.492188 312.515625 296.164062 315.90625 Z M 296.695312 314.171875 " fill-opacity="1" fill-rule="evenodd"/><path fill="#a29b41" d="M 295.46875 314.324219 C 293.796875 312.894531 292.585938 310.925781 290.933594 309.433594 C 284.210938 303.355469 275.628906 298.625 266.820312 296.6875 C 260.15625 295.222656 252.855469 296.128906 247.472656 300.691406 C 243.46875 304.085938 241.761719 309.851562 245.871094 313.914062 C 252.691406 320.648438 265.429688 318.542969 273.792969 317.148438 C 281.1875 315.914062 288.269531 313.519531 295.53125 311.753906 Z M 295.46875 314.324219 " fill-opacity="1" fill-rule="evenodd"/><path fill="#fff9e6" d="M 280.328125 233.820312 C 280.328125 233.820312 295.175781 220.910156 301.128906 222.722656 C 318.691406 228.074219 310.667969 235.789062 307.398438 240.785156 C 307.078125 241.277344 303.195312 245.644531 303.46875 246.019531 C 304.03125 246.785156 310.191406 246.34375 311.230469 246.457031 C 319.796875 247.398438 334.222656 251.570312 327.5 263.136719 C 323.324219 270.320312 313.78125 273.667969 305.960938 273.300781 C 303.335938 273.175781 299.378906 271.183594 296.859375 272.21875 C 295.460938 272.796875 289.734375 283.351562 283.890625 286.289062 C 279.664062 288.410156 274.375 289.441406 269.8125 287.847656 C 265.152344 286.222656 263 282.03125 262.917969 277.175781 C 262.90625 276.335938 263.984375 271.476562 263.320312 270.964844 C 262.261719 270.15625 256.828125 273.042969 255.605469 273.300781 C 248.609375 274.75 238.539062 272.695312 236.292969 264.535156 C 233.839844 255.628906 243.175781 250.503906 250.3125 249.523438 C 251.929688 249.300781 259.652344 249.585938 258.367188 247.886719 C 255.976562 244.726562 248.777344 238.097656 249.222656 233.199219 C 250.824219 215.699219 275.503906 227.242188 280.328125 233.820312 Z M 280.328125 233.820312 " fill-opacity="1" fill-rule="evenodd"/><path fill="#f8ab3e" d="M 279.074219 262.234375 C 275.957031 262.535156 273.949219 259.144531 273.386719 256.777344 C 272.304688 252.234375 274.785156 246.59375 280.109375 245.527344 C 286.613281 244.21875 293.945312 251.175781 291.535156 257.1875 C 290.59375 259.542969 287.921875 261.191406 285.457031 261.976562 Z M 279.074219 262.234375 " fill-opacity="1" fill-rule="evenodd"/><path fill="#f8ab3e" d="M 101.507812 183.972656 C 101.507812 183.972656 160.683594 287.464844 180.296875 300.214844 C 195.90625 310.359375 223.042969 289.976562 209.820312 257.117188 C 200.550781 234.082031 122.550781 162.734375 122.550781 162.734375 Z M 101.507812 183.972656 " fill-opacity="1" fill-rule="evenodd"/><g clip-path="url(#37dbcb29ec)"><g clip-path="url(#76b2fab82a)"><path fill="#d0923a" d="M 106.859375 200.3125 C 108.222656 198.601562 110.199219 197.320312 111.699219 195.722656 C 114.914062 192.308594 117.910156 188.609375 120.566406 184.652344 C 124.324219 179.046875 128.042969 171.984375 128.261719 164.742188 C 128.386719 160.6875 126.816406 156.921875 122.652344 157.117188 C 121.46875 157.171875 120.332031 157.535156 119.242188 157.984375 C 117.824219 158.574219 116.515625 159.378906 115.25 160.277344 C 103.609375 168.578125 95.289062 183.0625 90.074219 196.933594 Z M 106.859375 200.3125 " fill-opacity="1" fill-rule="evenodd"/></g></g><path fill="#f8ab3e" d="M 115.738281 137.625 C 110.757812 138.25 100.628906 143.746094 97.792969 145.640625 C 86.042969 153.484375 73.769531 165.851562 75.933594 180.257812 C 76.484375 183.949219 78.035156 187.375 81.070312 189.925781 C 87.734375 195.519531 97.570312 192.972656 104.425781 189.136719 C 116.066406 182.621094 124.796875 170.582031 128.65625 158.71875 C 130.433594 153.269531 129.851562 145.417969 127.695312 141.902344 C 125.597656 138.480469 119.976562 137.097656 115.738281 137.625 Z M 115.738281 137.625 " fill-opacity="1" fill-rule="evenodd"/><path fill="#d0923a" d="M 87.125 182.199219 C 86.160156 178.804688 96.273438 176.0625 96.660156 181.027344 C 96.875 183.773438 94.40625 186.777344 91.441406 187.347656 C 89.222656 187.777344 85.914062 187.214844 85.5625 184.703125 Z M 87.125 182.199219 " fill-opacity="1" fill-rule="evenodd"/><path fill="#d0923a" d="M 100.183594 169.929688 C 99.863281 167.140625 104.605469 164.589844 107.199219 165.804688 C 112.03125 168.070312 108.710938 174.636719 104.441406 175.324219 Z M 100.183594 169.929688 " fill-opacity="1" fill-rule="evenodd"/><path fill="#d0923a" d="M 84.351562 174.472656 C 77.261719 169.117188 91.375 161.953125 90.785156 170.363281 C 90.710938 171.367188 90.441406 172.320312 89.84375 173.164062 Z M 84.351562 174.472656 " fill-opacity="1" fill-rule="evenodd"/><path fill="#d0923a" d="M 94.742188 161.207031 C 90.53125 156.960938 100.648438 150.761719 101.65625 157.417969 C 101.78125 158.230469 101.730469 159.109375 101.554688 159.910156 C 101.304688 161.046875 100.625 161.9375 99.773438 162.765625 Z M 94.742188 161.207031 " fill-opacity="1" fill-rule="evenodd"/><path fill="#d0923a" d="M 110.570312 156.574219 C 109.664062 153.65625 115.878906 153.378906 117.550781 154.34375 C 123.210938 157.617188 117.039062 165.253906 111.636719 164.472656 Z M 110.570312 156.574219 " fill-opacity="1" fill-rule="evenodd"/><path fill="#d0923a" d="M 107.539062 147.214844 C 106.878906 146.628906 108.472656 145.898438 108.875 145.703125 C 110.734375 144.796875 115.304688 144.414062 114.855469 147.488281 C 114.429688 150.378906 111.15625 152.699219 108.246094 153.378906 C 105.921875 153.917969 103.410156 152.71875 104.238281 150.257812 Z M 107.539062 147.214844 " fill-opacity="1" fill-rule="evenodd"/><path fill="#d0923a" d="M 122.085938 146.160156 C 121.472656 145.292969 122.949219 145.703125 123.417969 146.367188 C 124.40625 147.765625 126.058594 152.859375 123.074219 153.273438 C 120.382812 153.648438 118.128906 150.3125 117.867188 148.265625 C 117.714844 147.0625 118.339844 145.171875 119.976562 145.285156 Z M 122.085938 146.160156 " fill-opacity="1" fill-rule="evenodd"/></svg>